<?xml version="1.0" encoding="UTF-8"?>
<svg id="Capa_2" data-name="Capa 2" xmlns="http://www.w3.org/2000/svg" viewBox="0 0 138.04 138.04">
  <defs>
    <style>
      .cls-1 {
        fill: #af1b2d;
      }

      .cls-2 {
        fill: none;
        stroke: #af1b2d;
        stroke-miterlimit: 10;
      }
    </style>
  </defs>
  <g id="Capa_1-2" data-name="Capa 1">
    <g>
      <rect class="cls-2" x=".5" y=".5" width="137.04" height="137.04" rx="68.52" ry="68.52"/>
      <path class="cls-1" d="M76.41,51.27h16.39c2.52.18,4.58,1.16,6.01,3.27,1.64,4.18,7.23,10.75,7.57,15.03.22,2.82.22,7.7,0,10.52-.31,3.93-3.74,6.97-7.71,6.57-1.87,9.92-16,9.97-18.13.16l-.2-.15-22.4-.02-.35.17c-2.14,9.81-16.24,9.74-18.13-.16-4.05.24-7.39-2.91-7.71-6.92-.74-9.29.57-19.53,0-28.92.28-3.55,2.87-6.37,6.4-6.91l32.04.02c3.51.56,6.39,3.72,6.24,7.34ZM72.91,68.08v-17.26c0-1.62-2.3-3.53-3.94-3.42-10.35.18-20.8-.34-31.1.27-1.33.54-2.37,1.66-2.46,3.15v28.92c.16,2.09,2.02,3.44,4.03,3.41.49-4.03,4.4-7.17,8.35-7.51,4.62-.39,9.03,2.97,9.88,7.51h14.98l.26-.26v-11.12h-28.64c-.53,0-1.34-1.21-1.32-1.83.02-.82.88-1.85,1.67-1.85h28.29ZM96.91,58.8c-.35-1.32-1.91-3.85-3.42-3.85h-17.08v28.2h4.03c2.1-9.05,14.16-10.32,17.9-1.52.56,1.31-.02,1.9,1.93,1.3.91-.28,2.41-1.51,2.41-2.49v-8.67h-13.93c-1.1,0-3.12-1.48-3.74-2.39-1.37-2.02-1.31-6.4.15-8.38.62-.85,2.55-2.19,3.59-2.19h8.15ZM101.99,68.08l-2.98-5.52c-3.02.05-6.56-.37-9.55-.1-1.84.17-2.01,2.07-1.83,3.6.07.59.65,2.01,1.31,2.01h13.05ZM47.29,79.34c-5.86.91-5.85,10.24.18,11.12,8.8,1.29,8.87-12.53-.18-11.12ZM88.45,79.34c-6.68,1.04-5.69,12.28,2.19,11.12,6.84-1,5.86-12.38-2.19-11.12Z"/>
    </g>
  </g>
</svg>