<?xml version="1.0" encoding="UTF-8"?>
<svg id="Capa_2" data-name="Capa 2" xmlns="http://www.w3.org/2000/svg" xmlns:xlink="http://www.w3.org/1999/xlink" viewBox="0 0 246.56 184.04">
  <defs>
    <style>
      .cls-1 {
        fill: url(#Degradado_sin_nombre_8-2);
      }

      .cls-1, .cls-2, .cls-3 {
        stroke: #ced4da;
        stroke-miterlimit: 10;
      }

      .cls-2 {
        fill: url(#Degradado_sin_nombre_8);
      }

      .cls-4 {
        fill: url(#Degradado_sin_nombre_19);
      }

      .cls-5 {
        fill: url(#Degradado_sin_nombre_19-2);
      }

      .cls-3 {
        fill: url(#Degradado_sin_nombre_8-3);
      }
    </style>
    <linearGradient id="Degradado_sin_nombre_19" data-name="Degradado sin nombre 19" x1="44.69" y1="160.41" x2="203.13" y2="160.41" gradientUnits="userSpaceOnUse">
      <stop offset=".15" stop-color="#1f71b8"/>
      <stop offset=".5" stop-color="#21204f"/>
      <stop offset=".83" stop-color="#0094d7"/>
    </linearGradient>
    <linearGradient id="Degradado_sin_nombre_19-2" data-name="Degradado sin nombre 19" x1="39.89" y1="26.3" x2="203.88" y2="26.3" xlink:href="#Degradado_sin_nombre_19"/>
    <linearGradient id="Degradado_sin_nombre_8" data-name="Degradado sin nombre 8" x1="-2111.53" y1="-2254.01" x2="-2052.48" y2="-2254.01" gradientTransform="translate(-2869.95 768.94) rotate(120)" gradientUnits="userSpaceOnUse">
      <stop offset=".15" stop-color="#1f71b8"/>
      <stop offset="1" stop-color="#21204f"/>
    </linearGradient>
    <linearGradient id="Degradado_sin_nombre_8-2" data-name="Degradado sin nombre 8" x1="-2153.36" y1="-2326.44" x2="-2094.3" y2="-2326.44" xlink:href="#Degradado_sin_nombre_8"/>
    <linearGradient id="Degradado_sin_nombre_8-3" data-name="Degradado sin nombre 8" x1="-2069.91" y1="-2181.91" x2="-2010.86" y2="-2181.91" xlink:href="#Degradado_sin_nombre_8"/>
  </defs>
  <g id="Capa_1-2" data-name="Capa 1">
    <g>
      <path class="cls-4" d="M202.26,136.77c-3.68,6.96-8.38,13.39-13.78,19.16-5.45,5.73-11.66,10.76-18.41,14.91-13.52,8.33-29.33,12.83-45.22,13.19-15.88.28-31.86-3.55-45.72-11.29-6.92-3.86-13.34-8.62-19.02-14.11-5.64-5.54-10.61-11.75-14.58-18.55,4.35,6.55,9.44,12.59,15.25,17.84,5.76,5.29,12.19,9.84,19.08,13.47,6.91,3.61,14.22,6.46,21.8,8.24,7.57,1.8,15.37,2.6,23.15,2.41,7.78-.12,15.54-1.24,23.03-3.36,7.5-2.1,14.69-5.25,21.44-9.15,6.74-3.93,12.97-8.75,18.5-14.28,5.58-5.49,10.41-11.74,14.47-18.48Z"/>
      <path class="cls-5" d="M40.79,52.59c3.42-7.62,8.01-14.71,13.43-21.1,5.47-6.36,11.83-11.96,18.84-16.6C87.08,5.57,103.82.45,120.66.02c16.84-.37,33.8,3.92,48.26,12.53,7.23,4.29,13.85,9.57,19.63,15.65,5.73,6.11,10.67,12.97,14.46,20.41-4.19-7.21-9.25-13.9-15.16-19.72-5.86-5.87-12.5-10.94-19.7-15-7.21-4.04-14.91-7.21-22.92-9.2-8-2.01-16.28-2.89-24.52-2.66-8.24.16-16.47,1.44-24.37,3.84-7.91,2.38-15.45,5.93-22.45,10.32-6.99,4.41-13.38,9.81-18.94,15.96-5.61,6.11-10.34,13.04-14.16,20.46Z"/>
      <g>
        <path class="cls-2" d="M84.84,92.87l20.74-6.84c4.55-1.5,8.23-4.91,10.07-9.34l7.43-17.91,7.43,17.91c1.84,4.43,5.51,7.84,10.07,9.34l20.74,6.84-20.74,6.84c-4.55,1.5-8.23,4.91-10.07,9.34l-7.43,17.91-7.43-17.91c-1.84-4.43-5.51-7.84-10.07-9.34l-20.74-6.84Z"/>
        <path class="cls-1" d="M168.49,92.87l20.74-6.84c4.55-1.5,8.23-4.91,10.07-9.34l7.43-17.91,7.43,17.91c1.84,4.43,5.51,7.84,10.07,9.34l20.74,6.84-20.74,6.84c-4.55,1.5-8.23,4.91-10.07,9.34l-7.43,17.91-7.43-17.91c-1.84-4.43-5.51-7.84-10.07-9.34l-20.74-6.84Z"/>
        <path class="cls-3" d="M1.6,92.87l20.74-6.84c4.55-1.5,8.23-4.91,10.07-9.34l7.43-17.91,7.43,17.91c1.84,4.43,5.51,7.84,10.07,9.34l20.74,6.84-20.74,6.84c-4.55,1.5-8.23,4.91-10.07,9.34l-7.43,17.91-7.43-17.91c-1.84-4.43-5.51-7.84-10.07-9.34l-20.74-6.84Z"/>
      </g>
    </g>
  </g>
</svg>