<?xml version="1.0" encoding="UTF-8"?>
<svg id="Capa_2" data-name="Capa 2" xmlns="http://www.w3.org/2000/svg" xmlns:xlink="http://www.w3.org/1999/xlink" viewBox="0 0 138.04 138.04">
  <defs>
    <style>
      .cls-1 {
        fill: #af1b2d;
      }

      .cls-2, .cls-3 {
        fill: none;
      }

      .cls-3 {
        stroke: #af1b2d;
        stroke-miterlimit: 10;
      }

      .cls-4 {
        clip-path: url(#clippath);
      }
    </style>
    <clipPath id="clippath">
      <path class="cls-2" d="M85.94,41.59l4.41,5.82,4.73,4.69v47.6l-38.02,3.94-14.08-6.48,13.14-13.83s1.06-4.01,1.13-5.07-7.29-13.74-7.29-13.74l-.72-11.99,3.13-9.14s8.14-5.13,9.64-6.01c1.5-.88,10.77-3,10.77-3l7.26.63,5.91,6.57Z"/>
    </clipPath>
  </defs>
  <g id="Capa_1-2" data-name="Capa 1">
    <g>
      <rect class="cls-3" x=".5" y=".5" width="137.04" height="137.04" rx="68.52" ry="68.52"/>
      <g class="cls-4">
        <g>
          <path class="cls-1" d="M6.97,83.25c-1.93-.27-3.72-2.64-3.77-4.56V-30.49c.18-2.6,1.63-4.43,4.25-4.88l65.7.09,15.3,15.12.55,1.05V45.24c4.75,8.19,4.13,18.42-2.39,25.45-.49.53-2.07,1.71-2.1,2.24,1.19,7.41,2.67,15.14,6.23,21.8.9,1.68,3.52,4.35-.2,4.68l-19.23-5.43c-6.21,1.32-12.57,4.04-18.74,5.27-1.53.31-2.34.18-2.41-1.59.83-1.62,1.86-3.09,2.64-4.74,1.39-2.96,2.32-6.15,3.2-9.3l-.21-.36H6.97ZM70.92-32.32H7.61c-.32,0-1.42.99-1.21,1.51.32,35.96-.4,71.95.02,107.91.01,1.13-.42,2.41.94,3.04l49.46.06,1.27-7.55c-10.12-8.33-10.13-24.15.18-32.37,8.32-6.63,20.07-5.91,27.7,1.36V-17.19c-.27-.28-.93-.23-1.35-.25-4.15-.15-8.33.13-12.49,0-.44.08-1.21-.93-1.21-1.19v-13.69ZM74.12-29.68c.14,3.06-.1,6.15,0,9.2h9.44c-3.02-3.23-6.27-6.3-9.37-9.44-.49-.04-.08.17-.08.24ZM84.46,68.46c8.26-9.09,4.9-23.83-6.45-28.39-14.96-6.01-29.57,9.4-22.75,24.03,5.3,11.38,20.75,13.67,29.2,4.36ZM65.62,76.55l-4.63-1.94c-1.19,7.07-2.75,14.19-5.92,20.65l6.05-1.64c2.2-5.47,3.62-11.24,4.51-17.08ZM87.57,95.26c-3.27-6.43-4.66-13.61-6-20.65l-4.58,2.02c.95,5.8,2.31,11.55,4.53,16.99l6.05,1.64ZM73.95,77.18c-1.74.19-3.53.25-5.26,0-.91,5.2-2.04,10.39-3.85,15.36l6.33-1.75,6.63,1.75c-1.79-4.97-2.96-10.15-3.85-15.35Z"/>
          <path class="cls-1" d="M15.81,18.94l60.72.04c1.38.63,1.22,2.41-.16,2.89l-59.8.08c-1.83,0-2.5-2.25-.76-3.01Z"/>
          <path class="cls-1" d="M15.97,4.21l60.56.03c1.33.63,1.23,2.43-.16,2.89l-60.63-.05c-1.31-.72-1.26-2.48.24-2.88Z"/>
          <path class="cls-1" d="M16.13,33.51l41.75-.04c2.6.11,2.35,3.22-.16,3.21H17.05c-2.32.22-3.23-2.41-.92-3.17Z"/>
          <path class="cls-1" d="M15.97,48.23l30.74.09c1.41.75,1.26,2.65-.36,2.92h-30.26c-1.7-.39-1.72-2.41-.12-3.01Z"/>
          <path class="cls-1" d="M15.1,63.45c.06-.07.65-.43.75-.45l30.5-.08c1.85.21,1.71,2.94-.16,3.05h-29.94c-1.18-.11-1.95-1.56-1.15-2.52Z"/>
          <path class="cls-1" d="M59.77,55.14c1.42-1.35,3.65-1.45,5.21-.28.37.28,1.89,2.02,2.15,1.98l10.5-10.48c3.83-2.66,8.28,1.71,5.61,5.61l-15.04,15.05c-.77.6-1.24.77-2.09.16-.9-.64-6.25-6.02-6.85-6.92-1.05-1.57-.87-3.81.51-5.12ZM61.84,57.36c-.25.59-.23.82.12,1.32.57.8,3.97,4.17,4.8,4.81.12.09.19.26.38.22l13.8-13.91c.26-.83-.77-1.49-1.47-.97l-11.75,11.62c-.52.14-1.03.14-1.51-.11-.88-.45-2.38-2.74-3.14-3.1-.39-.18-.88-.1-1.24.12Z"/>
        </g>
      </g>
    </g>
  </g>
</svg>