<?xml version="1.0" encoding="UTF-8"?>
<svg id="Capa_2" data-name="Capa 2" xmlns="http://www.w3.org/2000/svg" viewBox="0 0 138.04 138.04">
  <defs>
    <style>
      .cls-1 {
        fill: #af1b2d;
      }

      .cls-2 {
        fill: none;
        stroke: #af1b2d;
        stroke-miterlimit: 10;
      }
    </style>
  </defs>
  <g id="Capa_1-2" data-name="Capa 1">
    <g>
      <rect class="cls-2" x=".5" y=".5" width="137.04" height="137.04" rx="68.52" ry="68.52"/>
      <g>
        <path class="cls-1" d="M70.53,98.14v-25.95c0-.92.49-1.78,1.3-2.24l22.57-13.03c1.73-1,3.91.24,3.91,2.24v25.95c0,.92-.49,1.78-1.3,2.24l-22.57,13.03c-1.73,1-3.91-.24-3.91-2.24Z"/>
        <path class="cls-1" d="M57.27,69.36h0c0-2.16,2.32-3.51,4.18-2.43l4.62,2.68c.86.5,1.4,1.43,1.4,2.43v25.73c0,2.16-2.33,3.51-4.19,2.43l-22.15-12.92c-.86-.5-1.39-1.43-1.39-2.43v-25.78c0-2.15,2.31-3.5,4.17-2.44l4.54,2.6c.85.49,1.38,1.38,1.41,2.36l.17,6.86c.02.97.55,1.87,1.39,2.35l1.66.97c1.86,1.09,4.19-.26,4.19-2.43Z"/>
        <path class="cls-1" d="M69.85,35.8l7.32,4.16c1.11.63,1.1,2.21.01,2.87,0,0,0,0-.01,0-8.25,5.05-16.93,9.46-25.19,14.51-.51.31-1.16.33-1.68.03l-7.22-4.11c-1.12-.63-1.12-2.24-.01-2.88l25.13-14.57c.51-.3,1.14-.3,1.66,0Z"/>
        <path class="cls-1" d="M94.39,53.67l-24.04,14.05c-.69.4-1.53.41-2.22.01l-6.11-3.47c-1.5-.85-1.51-3-.02-3.87l24.06-13.97c.68-.39,1.51-.4,2.2-.02l6.09,3.38c1.51.84,1.53,3,.04,3.87Z"/>
      </g>
    </g>
  </g>
</svg>