<?xml version="1.0" encoding="UTF-8"?>
<svg xmlns="http://www.w3.org/2000/svg" xmlns:xlink="http://www.w3.org/1999/xlink" viewBox="0 0 173.45 183.16">
  <defs>
    <style>
      .cls-1 {
        isolation: isolate;
      }

      .cls-2 {
        fill: url(#Degradado_sin_nombre_8-4);
      }

      .cls-3 {
        fill: url(#Degradado_sin_nombre_8-3);
      }

      .cls-4 {
        fill: #0094d7;
        mix-blend-mode: multiply;
        stroke: #ced4da;
      }

      .cls-4, .cls-5 {
        stroke-miterlimit: 10;
      }

      .cls-5 {
        fill: none;
        stroke: #f5f5f5;
        stroke-width: .75px;
      }

      .cls-6 {
        fill: url(#Degradado_sin_nombre_8-2);
      }

      .cls-7 {
        fill: url(#Degradado_sin_nombre_8);
      }
    </style>
    <linearGradient id="Degradado_sin_nombre_8" data-name="Degradado sin nombre 8" x1="152.22" y1="-5.63" x2="37.82" y2="173.53" gradientUnits="userSpaceOnUse">
      <stop offset=".15" stop-color="#1f71b8"/>
      <stop offset="1" stop-color="#21204f"/>
    </linearGradient>
    <linearGradient id="Degradado_sin_nombre_8-2" data-name="Degradado sin nombre 8" x1="72.32" y1="56.17" x2="101.35" y2="56.17" xlink:href="#Degradado_sin_nombre_8"/>
    <linearGradient id="Degradado_sin_nombre_8-3" data-name="Degradado sin nombre 8" x1="84.21" y1="109.02" x2="113.24" y2="109.02" xlink:href="#Degradado_sin_nombre_8"/>
    <linearGradient id="Degradado_sin_nombre_8-4" data-name="Degradado sin nombre 8" x1="56.52" y1="83.74" x2="126.21" y2="83.74" xlink:href="#Degradado_sin_nombre_8"/>
  </defs>
  <g class="cls-1">
    <g id="Capa_2" data-name="Capa 2">
      <g id="Capa_1-2" data-name="Capa 1">
        <g>
          <path class="cls-7" d="M172.04,67.46c-4.25-13.17-10.6-28.65-15.97-41.53C148.81,8.5,141.41-1.03,120.8.37c-18.07,1.22-37.92,6.52-55.94,9.1-4.94,1.83-7.49,7.74-10.13,12.08-7.56,12.45-14.64,25.31-21.96,37.92-9.72,16.77-21.61,35.25-30.14,52.34C-.01,117.13-.07,120.81,4.95,124.7l97.02,56.05c4.53,3.01,9.59,2.48,12.89-1.92,17.12-32.03,38.06-62.94,54.86-95.03,3.75-7.16,4.94-8.2,2.32-16.33ZM163.74,83.84c-15.49,29.57-34.78,58.06-50.56,87.58-3.03,4.06-7.7,4.55-11.87,1.77L11.9,121.54c-4.63-3.59-4.58-6.98-2.13-11.88,7.86-15.76,18.81-32.79,27.77-48.24,6.74-11.62,13.27-23.47,20.23-34.95,2.43-4,4.78-9.44,9.33-11.13,16.6-2.38,34.89-7.26,51.55-8.38,19-1.29,25.81,7.49,32.51,23.55,4.95,11.87,10.8,26.13,14.72,38.27,2.42,7.5,1.32,8.45-2.14,15.05Z"/>
          <g>
            <path class="cls-6" d="M84.8,41.24c-17.28,2.51-16.81,31.54,2.67,30.03,19.05-1.48,18.8-33.14-2.67-30.03Z"/>
            <path class="cls-3" d="M96.69,94.08c-17.28,2.51-16.81,31.54,2.67,30.03,19.05-1.48,18.8-33.14-2.67-30.03Z"/>
            <path class="cls-2" d="M119.1,63.93l-59.9,29.72c-5.87,4.08-1.15,12.24,5.16,9.52l59.34-29.48c5.04-4,1.95-11.12-4.6-9.76Z"/>
            <g>
              <path class="cls-5" d="M120.32.51c20.61-1.4,28.01,8.13,35.27,25.56,5.37,12.88,11.72,28.36,15.97,41.53,2.63,8.14,1.43,9.17-2.32,16.33-16.8,32.09-37.74,63-54.86,95.03-3.29,4.41-8.36,4.94-12.89,1.92L4.47,124.84c-5.02-3.89-4.97-7.57-2.31-12.89,8.53-17.1,20.41-35.58,30.14-52.34,7.31-12.61,14.4-25.47,21.96-37.92,2.64-4.34,5.19-10.25,10.13-12.08C82.4,7.03,102.25,1.73,120.32.51ZM118.17,7.1c19-1.29,25.81,7.49,32.51,23.55,4.95,11.87,10.8,26.13,14.72,38.27,2.42,7.5,1.32,8.45-2.14,15.05-15.49,29.57-34.78,58.06-50.56,87.58-3.03,4.06-7.7,4.55-11.87,1.77L11.42,121.68c-4.63-3.59-4.58-6.98-2.13-11.88,7.86-15.76,18.81-32.79,27.77-48.24,6.74-11.62,13.27-23.47,20.23-34.95,2.43-4,4.78-9.44,9.33-11.13,16.6-2.38,34.89-7.26,51.55-8.38ZM128.22,14.76c-2.47.45-5.1,3.2-5.41,5.69-1.03,8.21,9.92,11.28,13.12,4.4,2.54-5.45-1.79-11.17-7.71-10.09ZM127.6,12.17c-3.38.62-6.98,4.37-7.4,7.79-1.41,11.24,13.58,15.44,17.96,6.02,3.47-7.46-2.45-15.3-10.56-13.81ZM85,41.33c-16.23,2.36-17.67,28.37-.49,30.04,21.74,2.11,22.66-33.27.49-30.04ZM119.1,63.93l-59.9,29.72c-5.87,4.08-1.15,12.24,5.16,9.52l59.34-29.48c5.04-4,1.95-11.12-4.6-9.76ZM96.91,94.08c-17.28,2.51-16.81,31.54,2.67,30.03,19.05-1.48,18.8-33.14-2.67-30.03Z"/>
              <path class="cls-4" d="M90.52,60.53c-2.09,2.15-5.98,2.61-8.13.28-2.83-3.08-.56-9.54,3.4-10.36,6.68-1.39,8.72,5.95,4.72,10.08Z"/>
              <path class="cls-4" d="M99.28,102.8c8.06-.44,6.6,13.77-2.39,12.1-5.96-1.1-4.08-11.74,2.39-12.1Z"/>
            </g>
          </g>
        </g>
      </g>
    </g>
  </g>
</svg>