<?xml version="1.0" encoding="UTF-8"?>
<svg xmlns="http://www.w3.org/2000/svg" xmlns:xlink="http://www.w3.org/1999/xlink" viewBox="0 0 198.33 159.79">
  <defs>
    <style>
      .cls-1 {
        mix-blend-mode: lighten;
      }

      .cls-2 {
        fill: url(#Degradado_sin_nombre_8);
        stroke: #ced4da;
        stroke-miterlimit: 10;
      }

      .cls-3 {
        isolation: isolate;
      }

      .cls-4 {
        fill: #1d70b6;
      }

      .cls-5 {
        fill: url(#Degradado_sin_nombre_8-2);
      }
    </style>
    <linearGradient id="Degradado_sin_nombre_8" data-name="Degradado sin nombre 8" x1=".5" y1="93.98" x2="195.63" y2="93.98" gradientUnits="userSpaceOnUse">
      <stop offset=".15" stop-color="#1f71b8"/>
      <stop offset="1" stop-color="#21204f"/>
    </linearGradient>
    <linearGradient id="Degradado_sin_nombre_8-2" data-name="Degradado sin nombre 8" x1="-1595.57" y1="-1777.61" x2="-1557.14" y2="-1777.61" gradientTransform="translate(-1766.49 1435.7) rotate(95)" xlink:href="#Degradado_sin_nombre_8"/>
  </defs>
  <g class="cls-3">
    <g id="Capa_2" data-name="Capa 2">
      <g id="Capa_1-2" data-name="Capa 1">
        <g>
          <path class="cls-2" d="M117.28,47.81l42.61-.02c6.56.48,11.92,3.05,15.62,8.53,4.26,10.86,18.8,27.96,19.69,39.08.58,7.33.58,20.03,0,27.37-.8,10.21-9.74,18.13-20.04,17.09-4.87,25.78-41.61,25.92-47.16.42l-.53-.39-58.26-.06-.92.45c-5.56,25.51-42.23,25.33-47.16-.42-10.54.62-19.22-7.57-20.04-18-1.91-24.15,1.48-50.79,0-75.2.73-9.24,7.48-16.56,16.65-17.97l83.31.04c9.13,1.44,16.63,9.67,16.22,19.09ZM108.17,91.54v-44.87c0-4.22-5.99-9.18-10.23-8.9-26.92.48-54.08-.89-80.88.7-3.46,1.41-6.17,4.31-6.4,8.18v75.2c.42,5.43,5.26,8.95,10.49,8.86,1.27-10.49,11.43-18.65,21.71-19.52,12.02-1.03,23.48,7.74,25.68,19.53h38.95l.68-.68v-28.93H33.69c-1.37,0-3.48-3.15-3.44-4.76.06-2.14,2.28-4.8,4.35-4.8h73.57ZM170.58,67.39c-.91-3.43-4.97-10.02-8.88-10.02h-44.42v73.34h10.48c5.45-23.54,36.82-26.85,46.55-3.96,1.45,3.4-.06,4.93,5.02,3.38,2.36-.72,6.28-3.92,6.28-6.48v-22.55h-36.22c-2.85,0-8.11-3.84-9.72-6.23-3.55-5.24-3.41-16.65.38-21.79,1.62-2.2,6.63-5.7,9.34-5.7h21.18ZM183.8,91.54l-7.75-14.35c-7.86.14-17.06-.97-24.85-.25-4.78.44-5.22,5.37-4.76,9.36.18,1.54,1.7,5.24,3.42,5.24h33.94ZM41.54,120.8c-15.24,2.37-15.23,26.64.47,28.93,22.9,3.34,23.07-32.59-.47-28.93ZM148.6,120.8c-17.38,2.72-14.8,31.92,5.69,28.93,17.79-2.6,15.24-32.2-5.69-28.93Z"/>
          <g>
            <g>
              <g class="cls-1">
                <path class="cls-4" d="M132.31,26.06c10.14-6.49,58.42-35.52,65.64-18.88,3.42,13.27-17.46,39.12-27.02,47.69,7.14-7.78,13.44-16.32,18.64-25.48,2.95-5.58,8.85-16.24,6.21-22.32-8.08-11.42-52.99,13.69-63.46,19h0Z"/>
              </g>
              <g class="cls-1">
                <path class="cls-4" d="M190.81,29.14c2.54-6.89,7.7-21.15-2.82-23.39-4.45-.92-9.23.13-13.65,1.15-4.57,1.14-9.07,2.65-13.62,4.12,8.11-4.11,22.64-10.83,31.32-5.76,7.58,5.41,2.56,17.53-1.23,23.89h0Z"/>
              </g>
            </g>
            <path class="cls-5" d="M121.51,29.48l6.81-6.88c3.39-3.42,5.11-8.15,4.71-12.95l-.79-9.65,6.88,6.81c3.42,3.39,8.15,5.11,12.95,4.71l9.65-.79-6.81,6.88c-3.39,3.42-5.11,8.15-4.71,12.95l.79,9.65-6.88-6.81c-3.42-3.39-8.15-5.11-12.95-4.71l-9.65.79Z"/>
          </g>
        </g>
      </g>
    </g>
  </g>
</svg>